<?xml version="1.0" encoding="UTF-8"?>
<svg width="633px" height="80px" viewBox="0 0 633 80" version="1.1" xmlns="http://www.w3.org/2000/svg" xmlns:xlink="http://www.w3.org/1999/xlink">
    <!-- Generator: Sketch 52.2 (67145) - http://www.bohemiancoding.com/sketch -->
    <title>Group</title>
    <desc>Created with Sketch.</desc>
    <defs>
        <polygon id="path-1" points="0.06 0.104 53.749 0.104 53.749 52.562 0.06 52.562"></polygon>
        <path d="M0.06,27.0539951 L0.06,23.2417963 C0.634475334,15.2126248 5.28691185,7.50988401 11.973,3.724 C16.107,1.311 21.362,0.104 27.218,0.104 C37.383,0.104 46.858,5.704 50.734,14.059 C53.232,19.657 53.749,21.983 53.749,29.735 L27.132,29.735 C29.028,34.816 33.85,38.005 39.622,38.005 C45.307,38.005 50.562,35.938 53.749,32.493 L53.749,41.363 C50.993,44.552 49.959,45.498 47.977,46.963 C43.153,50.58 36.521,52.562 29.114,52.562 C11.8768711,52.562 0.957825777,42.8483591 0.06,27.0539951 Z M37.9,20.865 C37.726,16.039 35.229,12.853 31.785,12.853 C28.166,12.853 25.669,15.955 25.669,20.434 L25.669,20.865 L37.9,20.865 Z" id="path-3"></path>
        <path d="M52.99,25.129 C48.769,19.101 42.911,15.569 37.141,15.569 C34.125,15.569 32.059,16.862 32.059,18.842 C32.059,21.427 33.179,22.115 42.223,25.734 C49.544,28.662 52.817,30.298 55.573,32.709 C59.192,35.811 61.172,40.032 61.172,45.114 C61.172,59.586 50.749,66.819 30.163,66.819 C19.655,66.819 10.524,65.354 1.652,62.255 L0.963,61.997 L7.941,40.549 C11.731,46.493 18.364,50.8 23.876,50.8 C26.804,50.8 28.786,49.335 28.786,47.18 C28.786,45.2 27.407,43.735 24.479,42.529 L17.847,39.687 C7.51,35.38 3.634,30.386 3.634,21.512 C3.634,7.904 14.402,0.496 34.385,0.496 C43.085,0.496 53.248,2.218 60.052,4.889 L52.99,25.129 Z" id="path-5"></path>
        <path d="M26.123,20.772 C30.256,15.948 35.166,13.794 42.23,13.794 C48.088,13.794 54.117,16.636 56.788,20.772 C59.802,25.337 60.147,27.402 60.147,40.238 L60.147,64.785 L35.597,64.785 L35.597,40.755 C35.597,30.849 34.823,29.127 30.687,29.127 C29.137,29.127 27.673,29.729 26.123,31.107 L26.123,64.785 L0.024,64.785 L0.024,0.615 L26.123,0.615 L26.123,20.772 Z" id="path-7"></path>
        <path d="M26.798,65.785 L0.7,65.785 L0.7,15.225 C3.628,16.862 9.054,18.067 13.619,18.067 C19.047,18.067 23.439,17.12 26.798,15.225 L26.798,65.785 Z M19.217,15.485 C15.255,15.485 11.983,12.124 11.983,7.989 C11.983,4.112 15.342,0.755 19.217,0.755 C23.353,0.755 26.712,4.028 26.712,7.989 C26.712,12.211 23.439,15.485 19.217,15.485 Z" id="path-9"></path>
        <path d="M26.714,5.014 C30.675,2.172 34.725,0.794 39.29,0.794 C51.951,0.794 61.511,11.476 61.511,25.687 C61.511,41.191 51.434,52.217 37.049,52.217 C33.776,52.217 30.243,51.442 26.714,49.977 L26.714,66 L0.615,66 L0.615,1.225 L26.714,1.225 L26.714,5.014 Z M26.714,32.577 C28.264,33.353 29.726,33.784 31.192,33.784 C34.465,33.784 36.448,31.372 36.448,27.411 C36.448,23.791 34.379,21.123 31.365,21.123 C29.47,21.123 28.004,21.899 26.714,23.448 L26.714,32.577 Z" id="path-11"></path>
        <path d="M53.229,28.49 C47.89,25.82 42.376,24.355 37.726,24.355 C31.265,24.355 26.872,27.887 26.872,33.055 C26.872,38.653 29.973,41.324 36.347,41.324 L36.949,41.324 L36.949,31.246 L65.375,31.246 L65.375,65.959 L64.945,65.959 C58.742,66.304 48.837,66.648 41.69,66.648 C27.043,66.648 19.982,64.925 13.004,59.929 C4.906,54.073 0.171,44.253 0.171,33.312 C0.171,13.589 14.47,0.496 36.088,0.496 C46.339,0.496 58.139,3.855 66.926,9.196 L53.229,28.49 Z" id="path-13"></path>
        <path d="M26.328,15.69 C30.031,14.311 32.703,13.708 36.062,13.708 C50.617,13.708 61.125,24.476 61.125,39.29 C61.125,51.177 52.771,61.6 41.4,63.751 C37.094,64.614 33.476,64.785 21.417,64.785 L0.315,64.785 L0.315,0.615 L26.328,0.615 L26.328,15.69 Z M26.844,46.353 C33.821,46.353 36.062,44.717 36.062,39.893 C36.062,36.017 33.907,33.605 30.462,33.605 C29.17,33.605 27.878,33.949 26.328,34.725 L26.328,46.353 L26.844,46.353 Z" id="path-15"></path>
        <path d="M2.216,6.824 C6.091,4.756 7.383,4.153 10.57,3.12 C15.307,1.569 21.08,0.794 27.367,0.794 C37.874,0.794 44.853,3.293 48.989,8.632 C52.347,13.025 53.293,16.901 53.293,26.98 L53.293,51.785 L27.108,51.785 L27.108,47.997 C23.836,50.494 18.754,52.217 14.704,52.217 C6.694,52.217 0.922,46.704 0.922,38.866 C0.922,29.908 7.986,24.222 18.926,24.222 C21.252,24.222 24.525,24.741 27.108,25.428 C26.85,20.605 23.491,18.107 17.29,18.107 C11.69,18.107 7.644,19.141 2.216,22.07 L2.216,6.824 Z M27.108,33.527 C25.214,32.924 24.266,32.75 22.888,32.75 C19.788,32.75 17.546,34.473 17.546,36.972 C17.546,39.9 19.788,41.966 22.972,41.966 C24.611,41.966 25.989,41.536 27.108,40.588 L27.108,33.527 Z" id="path-17"></path>
    </defs>
    <g id="Page-1" stroke="none" stroke-width="1" fill="none" fill-rule="evenodd">
        <g id="eSGLogo">
            <g id="Group">
                <g id="Group-3" transform="translate(0.000000, 14.000000)">
                    <mask id="mask-2" fill="white">
                        <use xlink:href="#path-1"></use>
                    </mask>
                    <g id="Clip-2"></g>
                    <path d="M53.749,41.363 C50.993,44.552 49.959,45.498 47.977,46.963 C43.153,50.58 36.521,52.562 29.114,52.562 C11.111,52.562 0,41.966 0,24.913 C0,16.298 4.824,7.772 11.973,3.724 C16.107,1.311 21.362,0.104 27.218,0.104 C37.383,0.104 46.858,5.704 50.734,14.059 C53.232,19.657 53.749,21.983 53.749,29.735 L27.132,29.735 C29.028,34.816 33.85,38.005 39.622,38.005 C45.307,38.005 50.562,35.938 53.749,32.493 L53.749,41.363 Z M37.9,20.865 C37.726,16.039 35.229,12.853 31.785,12.853 C28.166,12.853 25.669,15.955 25.669,20.434 L25.669,20.865 L37.9,20.865 Z" id="Fill-1" fill="#1B5386" mask="url(#mask-2)"></path>
                </g>
                <g id="Group-6" transform="translate(0.000000, 14.000000)">
                    <mask id="mask-4" fill="white">
                        <use xlink:href="#path-3"></use>
                    </mask>
                    <g id="Clip-5"></g>
                    <polygon id="Fill-4" fill="#1B5386" mask="url(#mask-4)" points="0.06 52.68 53.82 52.68 53.82 0 0.06 0"></polygon>
                </g>
                <path d="M109.99,25.129 C105.769,19.101 99.911,15.569 94.141,15.569 C91.125,15.569 89.059,16.862 89.059,18.842 C89.059,21.427 90.179,22.115 99.223,25.734 C106.544,28.662 109.817,30.298 112.573,32.709 C116.192,35.811 118.172,40.032 118.172,45.114 C118.172,59.586 107.749,66.819 87.163,66.819 C76.655,66.819 67.524,65.354 58.652,62.255 L57.963,61.997 L64.941,40.549 C68.731,46.493 75.364,50.8 80.876,50.8 C83.804,50.8 85.786,49.335 85.786,47.18 C85.786,45.2 84.407,43.735 81.479,42.529 L74.847,39.687 C64.51,35.38 60.634,30.386 60.634,21.512 C60.634,7.904 71.402,0.496 91.385,0.496 C100.085,0.496 110.248,2.218 117.052,4.889 L109.99,25.129" id="Fill-7" fill="#1B5386"></path>
                <g id="Group-10" transform="translate(57.000000, 0.000000)">
                    <mask id="mask-6" fill="white">
                        <use xlink:href="#path-5"></use>
                    </mask>
                    <g id="Clip-9"></g>
                    <polygon id="Fill-8" fill="#1B5386" mask="url(#mask-6)" points="0.963 66.82 61.172 66.82 61.172 0.496 0.963 0.496"></polygon>
                </g>
                <path d="M150.123,21.772 C154.256,16.948 159.166,14.794 166.23,14.794 C172.088,14.794 178.117,17.636 180.788,21.772 C183.802,26.337 184.147,28.402 184.147,41.238 L184.147,65.785 L159.597,65.785 L159.597,41.755 C159.597,31.849 158.823,30.127 154.687,30.127 C153.137,30.127 151.673,30.729 150.123,32.107 L150.123,65.785 L124.024,65.785 L124.024,1.615 L150.123,1.615 L150.123,21.772" id="Fill-11" fill="#1B5386"></path>
                <g id="Group-14" transform="translate(124.000000, 1.000000)">
                    <mask id="mask-8" fill="white">
                        <use xlink:href="#path-7"></use>
                    </mask>
                    <g id="Clip-13"></g>
                    <polygon id="Fill-12" fill="#1B5386" mask="url(#mask-8)" points="0.024 64.785 60.147 64.785 60.147 0.615 0.024 0.615"></polygon>
                </g>
                <path d="M219.798,65.785 L193.7,65.785 L193.7,15.225 C196.628,16.862 202.054,18.067 206.619,18.067 C212.047,18.067 216.439,17.12 219.798,15.225 L219.798,65.785 Z M212.217,15.485 C208.255,15.485 204.983,12.124 204.983,7.989 C204.983,4.112 208.342,0.755 212.217,0.755 C216.353,0.755 219.712,4.028 219.712,7.989 C219.712,12.211 216.439,15.485 212.217,15.485 Z" id="Fill-15" fill="#1B5386"></path>
                <g id="Group-18" transform="translate(193.000000, 0.000000)">
                    <mask id="mask-10" fill="white">
                        <use xlink:href="#path-9"></use>
                    </mask>
                    <g id="Clip-17"></g>
                    <polygon id="Fill-16" fill="#1B5386" mask="url(#mask-10)" points="0.7 65.785 26.798 65.785 26.798 0.755 0.7 0.755"></polygon>
                </g>
                <path d="M255.714,19.014 C259.675,16.172 263.725,14.794 268.29,14.794 C280.951,14.794 290.511,25.476 290.511,39.687 C290.511,55.191 280.434,66.217 266.049,66.217 C262.776,66.217 259.243,65.442 255.714,63.977 L255.714,80 L229.615,80 L229.615,15.225 L255.714,15.225 L255.714,19.014 Z M255.714,46.577 C257.264,47.353 258.726,47.784 260.192,47.784 C263.465,47.784 265.448,45.372 265.448,41.411 C265.448,37.791 263.379,35.123 260.365,35.123 C258.47,35.123 257.004,35.899 255.714,37.448 L255.714,46.577 Z" id="Fill-19" fill="#1B5386"></path>
                <g id="Group-22" transform="translate(229.000000, 14.000000)">
                    <mask id="mask-12" fill="white">
                        <use xlink:href="#path-11"></use>
                    </mask>
                    <g id="Clip-21"></g>
                    <polygon id="Fill-20" fill="#1B5386" mask="url(#mask-12)" points="0.615 66 61.511 66 61.511 0.794 0.615 0.794"></polygon>
                </g>
                <path d="M351.229,28.49 C345.89,25.82 340.376,24.355 335.726,24.355 C329.265,24.355 324.872,27.887 324.872,33.055 C324.872,38.653 327.973,41.324 334.347,41.324 L334.949,41.324 L334.949,31.246 L363.375,31.246 L363.375,65.959 L362.945,65.959 C356.742,66.304 346.837,66.648 339.69,66.648 C325.043,66.648 317.982,64.925 311.004,59.929 C302.906,54.073 298.171,44.253 298.171,33.312 C298.171,13.589 312.47,0.496 334.088,0.496 C344.339,0.496 356.139,3.855 364.926,9.196 L351.229,28.49" id="Fill-23" fill="#1B5386"></path>
                <g id="Group-26" transform="translate(298.000000, 0.000000)">
                    <mask id="mask-14" fill="white">
                        <use xlink:href="#path-13"></use>
                    </mask>
                    <g id="Clip-25"></g>
                    <polygon id="Fill-24" fill="#1B5386" mask="url(#mask-14)" points="0.171 66.648 66.926 66.648 66.926 0.496 0.171 0.496"></polygon>
                </g>
                <polygon id="Fill-27" fill="#1B5386" points="372.239 65.785 398.34 65.785 398.34 1.615 372.239 1.615"></polygon>
                <polygon id="Fill-28" fill="#1B5386" points="372.239 65.785 398.34 65.785 398.34 1.615 372.239 1.615"></polygon>
                <path d="M503.328,16.69 C507.031,15.311 509.703,14.708 513.062,14.708 C527.617,14.708 538.125,25.476 538.125,40.29 C538.125,52.177 529.771,62.6 518.4,64.751 C514.094,65.614 510.476,65.785 498.417,65.785 L477.315,65.785 L477.315,1.615 L503.328,1.615 L503.328,16.69 Z M503.844,47.353 C510.821,47.353 513.062,45.717 513.062,40.893 C513.062,37.017 510.907,34.605 507.462,34.605 C506.17,34.605 504.878,34.949 503.328,35.725 L503.328,47.353 L503.844,47.353 Z" id="Fill-30" fill="#1B5386"></path>
                <g id="Group-33" transform="translate(477.000000, 1.000000)">
                    <mask id="mask-16" fill="white">
                        <use xlink:href="#path-15"></use>
                    </mask>
                    <g id="Clip-32"></g>
                    <polygon id="Fill-31" fill="#1B5386" mask="url(#mask-16)" points="0.315 64.785 61.125 64.785 61.125 0.615 0.315 0.615"></polygon>
                </g>
                <path d="M546.216,20.824 C550.091,18.756 551.383,18.153 554.57,17.12 C559.307,15.569 565.08,14.794 571.367,14.794 C581.874,14.794 588.853,17.293 592.989,22.632 C596.347,27.025 597.293,30.901 597.293,40.98 L597.293,65.785 L571.108,65.785 L571.108,61.997 C567.836,64.494 562.754,66.217 558.704,66.217 C550.694,66.217 544.922,60.704 544.922,52.866 C544.922,43.908 551.986,38.222 562.926,38.222 C565.252,38.222 568.525,38.741 571.108,39.428 C570.85,34.605 567.491,32.107 561.29,32.107 C555.69,32.107 551.644,33.141 546.216,36.07 L546.216,20.824 Z M571.108,47.527 C569.214,46.924 568.266,46.75 566.888,46.75 C563.788,46.75 561.546,48.473 561.546,50.972 C561.546,53.9 563.788,55.966 566.972,55.966 C568.611,55.966 569.989,55.536 571.108,54.588 L571.108,47.527 Z" id="Fill-34" fill="#1B5386"></path>
                <g id="Group-37" transform="translate(544.000000, 14.000000)">
                    <mask id="mask-18" fill="white">
                        <use xlink:href="#path-17"></use>
                    </mask>
                    <g id="Clip-36"></g>
                    <polygon id="Fill-35" fill="#1B5386" mask="url(#mask-18)" points="0.922 52.216 53.293 52.216 53.293 0.794 0.922 0.794"></polygon>
                </g>
                <polygon id="Fill-38" fill="#1B5386" points="606.764 65.785 632.862 65.785 632.862 1.615 606.764 1.615"></polygon>
                <polygon id="Fill-39" fill="#1B5386" points="606.764 65.785 632.862 65.785 632.862 1.615 606.764 1.615"></polygon>
                <path d="M464.027,20.055 C463.468,20.192 463.749,21.869 463.749,21.869 L462.492,22.987 C462.492,22.987 462.492,22.987 463.329,23.268 C464.169,23.546 466.681,22.848 467.101,23.129 C467.521,23.405 467.521,25.084 467.521,25.084 C467.521,25.084 468.775,26.339 469.476,26.2 C469.749,26.145 470.11,26.456 470.447,26.853 C470.278,26.058 470.082,25.27 469.859,24.495 C468.929,23.014 466.243,20.423 465.983,19.775 C465.704,19.074 464.589,19.916 464.027,20.055" id="Fill-41" fill="#1B5386"></path>
                <path d="M453.972,8.321 C453.175,8.095 452.931,7.677 452.34,7.001 C451.994,6.795 451.878,6.504 451.878,6.504 C452.054,6.686 452.208,6.85 452.34,7.001 C452.529,7.116 452.787,7.2 453.135,7.2 C454.111,7.203 455.649,7.344 455.786,7.903 C455.927,8.462 454.951,8.599 453.972,8.321 Z M437.768,21.732 L437.489,20.753 C437.489,20.753 438.048,19.777 439.164,19.491 C440.282,19.213 440.421,18.656 440.421,18.656 L440.558,19.916 C440.558,19.916 438.048,20.194 437.768,21.732 Z M467.242,41.706 C466.962,40.446 467.101,38.772 467.101,38.772 C467.101,38.772 465.704,38.493 465.426,37.793 C465.145,37.095 463.886,38.911 463.468,38.911 C463.051,38.911 461.791,39.331 461.232,39.05 C460.676,38.772 458.025,34.302 458.025,34.302 C458.025,34.302 457.883,32.208 457.741,30.669 C457.605,29.132 458.72,28.294 458.72,28.294 C458.72,28.294 459.977,26.62 460.395,25.223 C460.815,23.824 462.492,22.987 462.492,22.987 C462.492,22.987 461.654,22.011 460.676,21.449 C459.948,21.034 460.072,19.618 460.241,18.743 C460.298,18.443 460.315,18.023 460.395,18.097 C461.791,19.355 462.77,18.937 462.77,18.798 C462.773,18.045 461.655,16.56 461.655,16.56 C461.655,16.56 463.329,15.864 464.169,15.586 C464.442,15.491 465.001,15.429 465.632,15.389 C462.599,10.835 458.469,7.078 453.619,4.494 C453.314,4.601 453.02,4.691 452.854,4.688 C452.434,4.691 451.316,4.969 451.316,4.969 C451.316,4.969 450.899,5.67 450.059,5.804 C449.222,5.945 448.663,6.226 448.663,6.226 L448.802,7.2 L448.665,8.321 L449.08,10.137 L448.384,10.415 C448.384,10.415 447.964,9.856 447.405,9.019 C446.849,8.179 445.592,9.158 444.749,8.599 C443.914,8.042 441.82,5.943 441.82,5.943 C441.82,5.943 442.237,5.247 442.379,4.549 C442.516,3.851 440.841,2.733 440.841,2.733 C440.844,1.195 437.069,0.78 437.069,0.78 C437.191,0.733 437.315,0.688 437.44,0.648 C430.746,0.782 424.54,2.909 419.387,6.457 C420.361,6.373 422.398,6.243 421.426,6.783 C420.169,7.483 418.492,8.321 417.655,8.462 C416.815,8.601 417.655,9.019 418.492,9.021 C419.329,9.019 421.705,7.901 423.24,7.762 C424.776,7.623 425.34,7.203 425.34,6.785 C425.337,6.365 424.917,5.806 424.917,5.806 C424.917,5.806 427.014,4.271 427.151,4.546 C427.292,4.827 425.615,5.247 426.592,6.646 C427.571,8.042 429.245,8.181 427.71,8.738 C426.174,9.3 422.823,11.255 423.799,12.092 C424.776,12.929 424.776,12.929 424.776,12.929 C424.776,12.929 426.45,12.79 427.012,13.208 C427.568,13.63 428.547,13.908 428.547,13.908 C428.547,13.908 427.849,15.024 429.248,15.583 C430.642,16.142 431.482,14.746 431.062,14.187 C430.644,13.63 432.18,13.908 432.041,12.93 C431.901,11.951 431.482,11.113 431.482,11.113 L432.038,9.3 C432.038,9.3 433.437,8.602 434.135,9.3 C434.836,9.995 434.697,10.835 435.812,11.255 C436.93,11.672 437.628,10.696 437.628,10.696 C437.628,10.696 439.164,10.557 439.442,11.675 C439.723,12.79 439.86,13.349 440.56,13.628 C441.258,13.908 440.702,14.604 440.702,14.604 C440.702,14.604 442.098,12.79 442.237,14.743 C442.379,16.704 441.261,17.26 442.516,17.402 C443.773,17.541 443.914,18.095 443.914,18.517 C443.914,18.935 442.518,18.378 442.518,18.378 C440.841,17.68 440.841,17.68 440.841,17.68 C440.841,17.68 441.818,16.421 440.841,16.423 C439.86,16.42 437.489,16.281 437.489,16.281 C437.489,16.281 434.694,17.541 434.694,18.237 C434.694,18.237 437.907,17.121 437.768,17.678 C437.628,18.239 437.069,18.097 437.628,18.239 C438.185,18.378 438.466,19.494 438.466,19.494 C438.466,19.494 438.187,19.215 437.067,19.635 C435.951,20.055 434.697,20.893 434.836,21.449 C434.975,22.011 432.6,21.872 432.18,22.987 C431.762,24.105 433.019,24.383 431.901,25.223 C430.783,26.058 428.686,27.599 428.967,28.714 C429.245,29.832 429.387,31.087 429.387,31.087 L428.411,31.089 C428.411,31.089 428.411,28.714 426.592,28.853 C424.776,28.995 424.077,29.554 424.077,29.554 C424.077,29.554 421.007,28.436 420.867,30.95 C420.867,30.95 420.308,35.559 422.125,35.562 C423.941,35.559 424.077,34.722 424.077,34.722 C424.077,34.722 424.917,33.604 425.474,33.882 C426.035,34.16 424.92,37.095 424.92,37.095 C425.894,37.234 427.568,37.095 427.568,37.095 C427.568,37.095 427.712,38.352 427.71,39.05 C427.712,39.748 427.71,40.725 428.689,40.725 C429.665,40.727 429.665,40.727 429.665,40.727 L429.665,41.423 C429.665,41.423 428.269,40.866 427.432,40.307 C426.594,39.748 425.755,38.491 425.755,38.491 C425.755,38.491 423.941,38.352 423.382,37.793 C422.823,37.234 423.382,36.536 422.125,36.814 C420.865,37.095 418.912,35.977 418.211,35.559 C417.513,35.139 417.096,33.465 417.096,33.465 C417.096,33.465 415.419,31.648 414.579,30.391 C413.741,29.132 414.159,28.575 413.182,28.294 C412.204,28.016 411.647,27.599 411.225,25.78 C410.81,23.964 412.345,21.032 411.786,20.055 C411.225,19.076 411.508,17.263 410.531,16.982 C410.248,16.902 410.002,16.786 409.793,16.661 C406.802,21.631 405.083,27.449 405.083,33.671 C405.083,49.706 416.507,63.074 431.658,66.075 C431.822,65.817 432.038,65.292 432.038,64.333 C432.041,62.795 432.041,61.399 432.6,59.165 C433.156,56.929 433.017,56.373 433.017,56.373 C433.017,56.373 430.363,55.394 429.949,54.556 C429.526,53.717 426.873,50.506 426.873,48.971 C426.873,47.431 427.991,47.013 427.991,47.013 C427.991,47.013 428.689,45.758 428.689,44.079 C428.689,42.404 430.227,41.984 430.227,41.984 L431.484,42.963 L432.6,41.843 C432.6,41.843 434.416,41.984 435.673,42.263 C436.928,42.543 437.35,43.1 437.35,43.1 C437.35,43.1 439.027,44.22 439.723,44.638 C440.424,45.055 442.518,45.475 442.518,45.475 C442.518,45.475 442.794,46.452 443.214,46.872 C443.527,47.185 442.677,47.811 442.222,48.106 L443.075,47.572 C443.075,47.572 445.033,48.551 445.728,49.108 C446.431,49.667 448.943,49.247 448.943,49.247 C448.943,49.247 450.479,49.948 450.059,50.924 C449.641,51.903 448.523,53.438 448.523,53.438 C448.523,53.438 447.825,56.373 446.71,57.349 C445.592,58.328 445.589,57.63 444.61,58.047 C443.636,58.465 443.075,59.026 442.098,60.42 C441.119,61.816 440.424,62.1 439.306,62.239 C438.187,62.378 438.886,63.215 438.886,63.215 L436.93,63.635 C436.93,63.635 436.232,64.194 435.392,65.312 C435.079,65.73 434.962,66.169 434.935,66.554 C435.984,66.654 437.042,66.709 438.115,66.709 C449.751,66.706 459.98,60.696 465.864,51.607 C465.948,50.911 466.316,48.059 466.683,46.593 C467.101,44.919 467.521,42.963 467.242,41.706 Z" id="Fill-42" fill="#1B5386"></path>
            </g>
        </g>
    </g>
</svg>